<svg width="32" height="34" viewBox="0 0 32 34" fill="none" xmlns="http://www.w3.org/2000/svg">
<path d="M23.5 1.94995H8.5C4.35786 1.94995 1 5.37977 1 9.61067V24.9321C1 29.163 4.35786 32.5928 8.5 32.5928H23.5C27.6421 32.5928 31 29.163 31 24.9321V9.61067C31 5.37977 27.6421 1.94995 23.5 1.94995Z" stroke="white" stroke-width="2" stroke-linecap="round" stroke-linejoin="round"/>
<path d="M21.9999 16.3062C22.185 17.5813 21.9718 18.8836 21.3906 20.0278C20.8093 21.172 19.8896 22.0998 18.7624 22.6794C17.6351 23.2589 16.3576 23.4606 15.1116 23.2559C13.8656 23.0511 12.7146 22.4502 11.8222 21.5387C10.9298 20.6272 10.3415 19.4515 10.141 18.1788C9.94053 16.9061 10.138 15.6012 10.7054 14.4498C11.2728 13.2983 12.1812 12.359 13.3014 11.7653C14.4216 11.1716 15.6966 10.9538 16.9449 11.1428C18.2183 11.3357 19.3972 11.9418 20.3075 12.8716C21.2177 13.8013 21.8111 15.0055 21.9999 16.3062Z" stroke="white" stroke-width="2" stroke-linecap="round" stroke-linejoin="round"/>
<path d="M24.25 8.8446H24.265" stroke="white" stroke-width="2" stroke-linecap="round" stroke-linejoin="round"/>
</svg>
