<svg width="32" height="27" viewBox="0 0 32 27" fill="none" xmlns="http://www.w3.org/2000/svg">
<path d="M31 1.46369C29.6942 2.38651 28.2483 3.09232 26.7182 3.55394C25.8969 2.60788 24.8055 1.93733 23.5914 1.63299C22.3774 1.32866 21.0993 1.40521 19.9301 1.8523C18.7609 2.2994 17.757 3.09546 17.0541 4.13282C16.3512 5.17018 15.9832 6.39879 16 7.65248V9.01866C13.6036 9.08091 11.229 8.54844 9.08774 7.46866C6.94647 6.38887 5.10498 4.7953 3.72727 2.82987C3.72727 2.82987 -1.72727 15.1255 10.5455 20.5902C7.73708 22.5001 4.39158 23.4577 1 23.3226C13.2727 30.1535 28.2727 23.3226 28.2727 7.6115C28.2715 7.23095 28.235 6.85135 28.1636 6.47757C29.5554 5.1025 30.5375 3.36638 31 1.46369V1.46369Z" stroke="white" stroke-width="2" stroke-linecap="round" stroke-linejoin="round"/>
</svg>
